<svg width="80" height="61" viewBox="0 0 80 61" fill="none" xmlns="http://www.w3.org/2000/svg">
<path d="M39.1594 60.7129L52.4546 37.7073L25.8643 37.7073L39.1594 60.7129Z" fill="#E0E0E0"/>
<path d="M26.2727 23.0057L12.9775 46.0566L39.5678 46.0566L26.2727 23.0057Z" fill="#FF8D00"/>
<path d="M39.5676 46.0566L52.8628 23.0057L26.2725 23.0057L39.5676 46.0566Z" fill="#FFC405"/>
<path d="M26.2725 23.0056L52.8628 23.0056L39.5676 1.08629e-05L26.2725 23.0056Z" fill="#FF8D00"/>
<path d="M52.8625 23.0056L66.1577 1.02818e-05L39.5674 1.14441e-05L52.8625 23.0056Z" fill="#FFC405"/>
<path d="M65.7492 1.08629e-05L52.4541 23.0056L79.0444 23.0056L65.7492 1.08629e-05Z" fill="#E0E0E0"/>
<path d="M13.2951 46.0566L26.5903 23.0057L-1.00759e-06 23.0057L13.2951 46.0566Z" fill="#E0E0E0"/>
<path d="M65.7495 60.7129L52.4543 37.7073L39.1592 60.7129L65.7495 60.7129Z" fill="#FF8D00"/>
<path d="M65.7492 14.6563L52.4541 37.7073L79.0444 37.7073L65.7492 14.6563Z" fill="#FF8D00"/>
<path d="M52.4541 37.7073L65.7493 60.7129L79.0444 37.7073L52.4541 37.7073Z" fill="#FFC405"/>
</svg>
