<svg width="47" height="47" viewBox="0 0 47 47" fill="none" xmlns="http://www.w3.org/2000/svg">
<path d="M34.2708 47C27.2522 47 21.5417 41.2895 21.5417 34.2708C21.5417 27.2522 27.2522 21.5417 34.2708 21.5417C41.2895 21.5417 47 27.2522 47 34.2708C47 41.2895 41.2895 47 34.2708 47ZM34.2708 23.5C28.3312 23.5 23.5 28.3332 23.5 34.2708C23.5 40.2085 28.3312 45.0417 34.2708 45.0417C40.2105 45.0417 45.0417 40.2085 45.0417 34.2708C45.0417 28.3332 40.2105 23.5 34.2708 23.5Z" fill="#FF3D00"/>
<path d="M34.2708 41.125C33.7303 41.125 33.2917 40.6863 33.2917 40.1458V32.3125C33.2917 31.772 33.7303 31.3333 34.2708 31.3333C34.8113 31.3333 35.25 31.772 35.25 32.3125V40.1458C35.25 40.6863 34.8113 41.125 34.2708 41.125Z" fill="#FF3D00"/>
<path d="M34.2708 29.375C34.8116 29.375 35.25 28.9366 35.25 28.3958C35.25 27.8551 34.8116 27.4167 34.2708 27.4167C33.7301 27.4167 33.2917 27.8551 33.2917 28.3958C33.2917 28.9366 33.7301 29.375 34.2708 29.375Z" fill="#FF3D00"/>
<path d="M18.6042 41.125H4.89583C2.19725 41.125 0 38.9297 0 36.2292V10.7708C0 8.07029 2.19725 5.875 4.89583 5.875H8.8125C9.353 5.875 9.79167 6.31367 9.79167 6.85417C9.79167 7.39467 9.353 7.83333 8.8125 7.83333H4.89583C3.27629 7.83333 1.95833 9.15129 1.95833 10.7708V36.2292C1.95833 37.8487 3.27629 39.1667 4.89583 39.1667H18.6042C19.1447 39.1667 19.5833 39.6053 19.5833 40.1458C19.5833 40.6863 19.1447 41.125 18.6042 41.125Z" fill="#FF3D00"/>
<path d="M22.5208 11.75H10.7708C9.15129 11.75 7.83333 10.432 7.83333 8.8125V4.89583C7.83333 4.35533 8.272 3.91667 8.8125 3.91667H11.8479C12.3042 1.68417 14.2802 0 16.6458 0C19.0115 0 20.9875 1.68417 21.4438 3.91667H24.4792C25.0197 3.91667 25.4583 4.35533 25.4583 4.89583V8.8125C25.4583 10.432 24.1404 11.75 22.5208 11.75ZM9.79167 5.875V8.8125C9.79167 9.35104 10.2303 9.79167 10.7708 9.79167H22.5208C23.0613 9.79167 23.5 9.35104 23.5 8.8125V5.875H20.5625C20.022 5.875 19.5833 5.43633 19.5833 4.89583C19.5833 3.27629 18.2654 1.95833 16.6458 1.95833C15.0263 1.95833 13.7083 3.27629 13.7083 4.89583C13.7083 5.43633 13.2697 5.875 12.7292 5.875H9.79167Z" fill="#FF3D00"/>
<path d="M26.4375 17.625H6.85417C6.31367 17.625 5.875 17.1863 5.875 16.6458C5.875 16.1053 6.31367 15.6667 6.85417 15.6667H26.4375C26.978 15.6667 27.4167 16.1053 27.4167 16.6458C27.4167 17.1863 26.978 17.625 26.4375 17.625Z" fill="#FF3D00"/>
<path d="M20.5625 23.5H6.85417C6.31367 23.5 5.875 23.0613 5.875 22.5208C5.875 21.9803 6.31367 21.5417 6.85417 21.5417H20.5625C21.103 21.5417 21.5417 21.9803 21.5417 22.5208C21.5417 23.0613 21.103 23.5 20.5625 23.5Z" fill="#FF3D00"/>
<path d="M16.6458 29.375H6.85417C6.31367 29.375 5.875 28.9363 5.875 28.3958C5.875 27.8553 6.31367 27.4167 6.85417 27.4167H16.6458C17.1863 27.4167 17.625 27.8553 17.625 28.3958C17.625 28.9363 17.1863 29.375 16.6458 29.375Z" fill="#FF3D00"/>
<path d="M32.3125 17.625C31.772 17.625 31.3333 17.1863 31.3333 16.6458V10.7708C31.3333 9.15129 30.0154 7.83333 28.3958 7.83333H24.4792C23.9387 7.83333 23.5 7.39467 23.5 6.85417C23.5 6.31367 23.9387 5.875 24.4792 5.875H28.3958C31.0944 5.875 33.2917 8.07029 33.2917 10.7708V16.6458C33.2917 17.1863 32.853 17.625 32.3125 17.625Z" fill="#FF3D00"/>
</svg>
