<svg width="40" height="40" viewBox="0 0 40 40" fill="none" xmlns="http://www.w3.org/2000/svg">
<path d="M11.3333 13.3333C10.0148 13.3333 8.72586 13.7243 7.62953 14.4569C6.5332 15.1894 5.67872 16.2306 5.17414 17.4488C4.66955 18.667 4.53753 20.0074 4.79476 21.3006C5.052 22.5938 5.68694 23.7817 6.61929 24.714C7.55164 25.6464 8.73952 26.2813 10.0327 26.5386C11.3259 26.7958 12.6664 26.6638 13.8846 26.1592C15.1027 25.6546 16.1439 24.8001 16.8765 23.7038C17.609 22.6075 18 21.3185 18 20C17.9981 18.2325 17.2951 16.5379 16.0452 15.2881C14.7954 14.0383 13.1008 13.3353 11.3333 13.3333ZM11.3333 25.3333C10.2785 25.3333 9.24735 25.0205 8.37029 24.4345C7.49323 23.8485 6.80964 23.0155 6.40598 22.041C6.00231 21.0664 5.89669 19.9941 6.10248 18.9595C6.30827 17.925 6.81622 16.9746 7.5621 16.2288C8.30798 15.4829 9.25829 14.9749 10.2929 14.7691C11.3274 14.5634 12.3998 14.669 13.3743 15.0726C14.3489 15.4763 15.1818 16.1599 15.7678 17.037C16.3539 17.914 16.6667 18.9452 16.6667 20C16.6651 21.414 16.1027 22.7696 15.1028 23.7695C14.103 24.7693 12.7473 25.3317 11.3333 25.3333Z" fill="#3C3C3C"/>
<path d="M11.3333 16C10.5422 16 9.76885 16.2346 9.11105 16.6741C8.45325 17.1136 7.94057 17.7384 7.63781 18.4693C7.33506 19.2002 7.25585 20.0044 7.41019 20.7804C7.56453 21.5563 7.9455 22.269 8.50491 22.8284C9.06432 23.3878 9.77705 23.7688 10.553 23.9231C11.3289 24.0775 12.1332 23.9983 12.8641 23.6955C13.595 23.3928 14.2197 22.8801 14.6592 22.2223C15.0987 21.5645 15.3333 20.7911 15.3333 20C15.3323 18.9395 14.9105 17.9227 14.1606 17.1727C13.4107 16.4228 12.3939 16.0011 11.3333 16ZM11.3333 22.6667C10.8059 22.6667 10.2903 22.5103 9.85181 22.2173C9.41328 21.9242 9.07149 21.5078 8.86965 21.0205C8.66782 20.5332 8.61501 19.997 8.71791 19.4798C8.8208 18.9625 9.07477 18.4873 9.44771 18.1144C9.82065 17.7414 10.2958 17.4875 10.8131 17.3846C11.3304 17.2817 11.8666 17.3345 12.3538 17.5363C12.8411 17.7382 13.2576 18.0799 13.5506 18.5185C13.8436 18.957 14 19.4726 14 20C14 20.7072 13.719 21.3855 13.219 21.8856C12.7189 22.3857 12.0406 22.6667 11.3333 22.6667Z" fill="#3C3C3C"/>
<path d="M38 0H30C29.4696 0 28.9609 0.210714 28.5858 0.585786C28.2107 0.960859 28 1.46957 28 2V5.33333H26.6667C26.1362 5.33333 25.6275 5.54405 25.2525 5.91912C24.8774 6.29419 24.6667 6.8029 24.6667 7.33333V19.3333H22.6373C22.6313 19.232 22.6333 19.1287 22.6247 19.028C22.6024 18.7918 22.515 18.5664 22.3722 18.3769C22.2295 18.1874 22.0369 18.0412 21.816 17.9547L20.4067 17.3913C20.2108 16.709 19.938 16.0512 19.5933 15.4307L20.1933 14.0307C20.289 13.8129 20.322 13.5728 20.2888 13.3373C20.2556 13.1018 20.1575 12.8802 20.0053 12.6973C19.7987 12.4507 19.5787 12.2107 19.3487 11.9807C19.1187 11.7507 18.8787 11.5307 18.6307 11.3227C18.448 11.1717 18.2271 11.0743 17.9924 11.0413C17.7577 11.0084 17.5185 11.0411 17.3013 11.136L15.9013 11.736C15.2808 11.3914 14.623 11.1185 13.9407 10.9227L13.3767 9.512C13.2901 9.29148 13.1441 9.09929 12.9548 8.95677C12.7656 8.81425 12.5405 8.72698 12.3047 8.70467C11.6577 8.64667 11.0069 8.64667 10.36 8.70467C10.1238 8.72693 9.89838 8.81432 9.70888 8.95709C9.51938 9.09986 9.37322 9.29242 9.28667 9.51333L8.72333 10.9227C8.04104 11.1185 7.38325 11.3914 6.76267 11.736L5.36267 11.136C5.145 11.0399 4.90479 11.0066 4.66918 11.0398C4.43357 11.073 4.21195 11.1715 4.02933 11.324C3.78267 11.5307 3.54267 11.7507 3.31267 11.9807C3.08267 12.2107 2.86267 12.4507 2.65467 12.6987C2.50353 12.8812 2.40605 13.1022 2.37309 13.3369C2.34013 13.5716 2.37299 13.8109 2.468 14.028L3.068 15.428C2.72338 16.0486 2.45051 16.7064 2.25467 17.3887L0.844 17.9527C0.624103 18.0402 0.432762 18.187 0.291198 18.3767C0.149633 18.5664 0.0633785 18.7916 0.042 19.0273C0.0133333 19.3487 0 19.6747 0 20C0 20.3253 0.0133333 20.6513 0.042 20.972C0.0642677 21.2082 0.151651 21.4336 0.294423 21.6231C0.437195 21.8126 0.629754 21.9588 0.850667 22.0453L2.26 22.6087C2.45584 23.291 2.72871 23.9488 3.07333 24.5693L2.47333 25.9693C2.3777 26.1871 2.34463 26.4272 2.37784 26.6627C2.41105 26.8982 2.50922 27.1198 2.66133 27.3027C2.868 27.5493 3.088 27.7893 3.318 28.0193C3.548 28.2493 3.788 28.4693 4.036 28.6773C4.21857 28.8285 4.43952 28.926 4.67423 28.9589C4.90894 28.9919 5.1482 28.959 5.36533 28.864L6.76533 28.264C7.38591 28.6086 8.0437 28.8815 8.726 29.0773L9.29 30.488C9.37659 30.7085 9.52261 30.9007 9.71185 31.0432C9.9011 31.1858 10.1261 31.273 10.362 31.2953C10.6833 31.324 11.0093 31.3373 11.3347 31.3373C11.66 31.3373 11.986 31.324 12.3067 31.2953C12.5429 31.2731 12.7683 31.1857 12.9578 31.0429C13.1473 30.9001 13.2934 30.7076 13.38 30.4867L13.9433 29.0773C14.6256 28.8815 15.2834 28.6086 15.904 28.264L17.304 28.864C17.5218 28.9597 17.7619 28.9928 17.9974 28.9596C18.2329 28.9264 18.4545 28.8282 18.6373 28.676C18.884 28.4693 19.124 28.2493 19.354 28.0193C19.584 27.7893 19.804 27.5527 20.012 27.3013C20.1631 27.1188 20.2606 26.8978 20.2936 26.6631C20.3265 26.4284 20.2937 26.1891 20.1987 25.972L19.5987 24.572C19.9433 23.9514 20.2162 23.2936 20.412 22.6113L21.8213 22.048C22.0419 21.9614 22.234 21.8154 22.3766 21.6261C22.5191 21.4369 22.6064 21.2119 22.6287 20.976C22.6373 20.8747 22.6353 20.772 22.6413 20.67H24.6667V32.6667C24.6667 33.1971 24.8774 33.7058 25.2525 34.0809C25.6275 34.456 26.1362 34.6667 26.6667 34.6667H28V38C28 38.5304 28.2107 39.0391 28.5858 39.4142C28.9609 39.7893 29.4696 40 30 40H38C38.5304 40 39.0391 39.7893 39.4142 39.4142C39.7893 39.0391 40 38.5304 40 38V30C40 29.4696 39.7893 28.9609 39.4142 28.5858C39.0391 28.2107 38.5304 28 38 28H30C29.4696 28 28.9609 28.2107 28.5858 28.5858C28.2107 28.9609 28 29.4696 28 30V33.3333H26.6667C26.4899 33.3333 26.3203 33.2631 26.1953 33.1381C26.0702 33.0131 26 32.8435 26 32.6667V20.6667H28V24C28 24.5304 28.2107 25.0391 28.5858 25.4142C28.9609 25.7893 29.4696 26 30 26H38C38.5304 26 39.0391 25.7893 39.4142 25.4142C39.7893 25.0391 40 24.5304 40 24V16C40 15.4696 39.7893 14.9609 39.4142 14.5858C39.0391 14.2107 38.5304 14 38 14H30C29.4696 14 28.9609 14.2107 28.5858 14.5858C28.2107 14.9609 28 15.4696 28 16V19.3333H26V7.33333C26 7.15652 26.0702 6.98695 26.1953 6.86193C26.3203 6.73691 26.4899 6.66667 26.6667 6.66667H28V10C28 10.5304 28.2107 11.0391 28.5858 11.4142C28.9609 11.7893 29.4696 12 30 12H38C38.5304 12 39.0391 11.7893 39.4142 11.4142C39.7893 11.0391 40 10.5304 40 10V2C40 1.46957 39.7893 0.960859 39.4142 0.585786C39.0391 0.210714 38.5304 0 38 0ZM21.2993 20.816L19.6 21.4947C19.5017 21.5339 19.4142 21.5959 19.3446 21.6757C19.2751 21.7555 19.2255 21.8506 19.2 21.9533C19.0052 22.7376 18.6937 23.4882 18.276 24.18C18.2212 24.2706 18.1887 24.3729 18.1813 24.4785C18.1739 24.5841 18.1917 24.69 18.2333 24.7873L18.9793 26.442C18.7973 26.6587 18.6033 26.8687 18.4013 27.0707C18.1993 27.2727 17.9893 27.4667 17.822 27.6333L16.118 26.9C16.0207 26.8584 15.9148 26.8405 15.8092 26.848C15.7036 26.8554 15.6012 26.8878 15.5107 26.9427C14.8197 27.3601 14.07 27.6716 13.2867 27.8667C13.184 27.8922 13.0888 27.9417 13.009 28.0113C12.9293 28.0808 12.8672 28.1684 12.828 28.2667L12.1847 29.9607C11.6227 30.012 11 29.9867 10.526 29.9853L9.83867 28.2667C9.79945 28.1684 9.7374 28.0808 9.65764 28.0113C9.57788 27.9417 9.48271 27.8922 9.38 27.8667C8.59572 27.6718 7.84513 27.3604 7.15333 26.9427C7.06276 26.8878 6.96043 26.8554 6.85482 26.848C6.74921 26.8405 6.64335 26.8584 6.546 26.9L4.89133 27.6487C4.67467 27.4667 4.46467 27.2727 4.26267 27.0707C4.06067 26.8687 3.86667 26.6587 3.7 26.4913L4.43333 24.7873C4.47496 24.69 4.4928 24.5841 4.48538 24.4785C4.47796 24.3729 4.44549 24.2706 4.39067 24.18C3.97297 23.4882 3.6615 22.7376 3.46667 21.9533C3.44118 21.8506 3.39161 21.7555 3.32206 21.6757C3.2525 21.5959 3.16496 21.5339 3.06667 21.4947L1.37267 20.8513C1.34533 20.57 1.33333 20.2853 1.33333 20C1.33333 19.7147 1.34533 19.43 1.346 19.1927L3.06667 18.5053C3.16496 18.4661 3.2525 18.4041 3.32206 18.3243C3.39161 18.2446 3.44118 18.1494 3.46667 18.0467C3.6615 17.2624 3.97297 16.5118 4.39067 15.82C4.44549 15.7294 4.47796 15.6271 4.48538 15.5215C4.4928 15.4159 4.47496 15.31 4.43333 15.2127L3.68467 13.558C3.86667 13.3413 4.06067 13.1313 4.26267 12.9293C4.46467 12.7273 4.67467 12.5333 4.842 12.3667L6.546 13.1C6.64335 13.1416 6.74921 13.1595 6.85482 13.152C6.96043 13.1446 7.06276 13.1122 7.15333 13.0573C7.84513 12.6396 8.59572 12.3282 9.38 12.1333C9.48271 12.1079 9.57788 12.0583 9.65764 11.9887C9.7374 11.9192 9.79945 11.8316 9.83867 11.7333L10.482 10.0393C11.044 9.988 11.6667 10.0133 12.1407 10.0147L12.828 11.7333C12.8672 11.8316 12.9293 11.9192 13.009 11.9887C13.0888 12.0583 13.184 12.1079 13.2867 12.1333C14.0709 12.3282 14.8215 12.6396 15.5133 13.0573C15.6039 13.1122 15.7062 13.1446 15.8118 13.152C15.9175 13.1595 16.0233 13.1416 16.1207 13.1L17.7753 12.354C17.992 12.536 18.202 12.73 18.404 12.932C18.606 13.134 18.8 13.344 18.9667 13.5113L18.2333 15.2153C18.1917 15.3127 18.1739 15.4185 18.1813 15.5242C18.1887 15.6298 18.2212 15.7321 18.276 15.8227C18.6935 16.5136 19.0049 17.2633 19.2 18.0467C19.2255 18.1494 19.2751 18.2446 19.3446 18.3243C19.4142 18.4041 19.5017 18.4661 19.6 18.5053L21.294 19.1487C21.3193 19.43 21.3313 19.7147 21.3313 20C21.3333 20.2727 21.3227 20.5453 21.2993 20.816ZM29.3333 30C29.3333 29.8232 29.4036 29.6536 29.5286 29.5286C29.6536 29.4036 29.8232 29.3333 30 29.3333H38C38.1768 29.3333 38.3464 29.4036 38.4714 29.5286C38.5964 29.6536 38.6667 29.8232 38.6667 30V38C38.6667 38.1768 38.5964 38.3464 38.4714 38.4714C38.3464 38.5964 38.1768 38.6667 38 38.6667H30C29.8232 38.6667 29.6536 38.5964 29.5286 38.4714C29.4036 38.3464 29.3333 38.1768 29.3333 38V30ZM29.3333 16C29.3333 15.8232 29.4036 15.6536 29.5286 15.5286C29.6536 15.4036 29.8232 15.3333 30 15.3333H38C38.1768 15.3333 38.3464 15.4036 38.4714 15.5286C38.5964 15.6536 38.6667 15.8232 38.6667 16V24C38.6667 24.1768 38.5964 24.3464 38.4714 24.4714C38.3464 24.5964 38.1768 24.6667 38 24.6667H30C29.8232 24.6667 29.6536 24.5964 29.5286 24.4714C29.4036 24.3464 29.3333 24.1768 29.3333 24V16ZM38.6667 10C38.6667 10.1768 38.5964 10.3464 38.4714 10.4714C38.3464 10.5964 38.1768 10.6667 38 10.6667H30C29.8232 10.6667 29.6536 10.5964 29.5286 10.4714C29.4036 10.3464 29.3333 10.1768 29.3333 10V2C29.3333 1.82319 29.4036 1.65362 29.5286 1.5286C29.6536 1.40357 29.8232 1.33333 30 1.33333H38C38.1768 1.33333 38.3464 1.40357 38.4714 1.5286C38.5964 1.65362 38.6667 1.82319 38.6667 2V10Z" fill="#3C3C3C"/>
<path d="M35.4453 3.63L33.23 6.954L32.4713 6.19533C32.3456 6.07389 32.1772 6.0067 32.0024 6.00822C31.8276 6.00974 31.6604 6.07985 31.5368 6.20345C31.4132 6.32706 31.3431 6.49427 31.3416 6.66907C31.34 6.84386 31.4072 7.01226 31.5287 7.138L32.862 8.47133C32.987 8.59636 33.1565 8.66663 33.3333 8.66667C33.3547 8.66667 33.3767 8.66667 33.4 8.66333C33.4981 8.6536 33.5928 8.62224 33.6773 8.57152C33.7618 8.5208 33.834 8.45197 33.8887 8.37L36.5553 4.37C36.6039 4.29716 36.6377 4.21546 36.6547 4.12957C36.6717 4.04368 36.6717 3.95528 36.6545 3.86942C36.6374 3.78356 36.6035 3.70191 36.5548 3.62915C36.5061 3.55638 36.4435 3.49392 36.3707 3.44533C36.2978 3.39674 36.2161 3.36298 36.1302 3.34596C36.0444 3.32895 35.956 3.32901 35.8701 3.34616C35.7842 3.36331 35.7026 3.3972 35.6298 3.4459C35.5571 3.4946 35.4939 3.55716 35.4453 3.63Z" fill="#3C3C3C"/>
<path d="M32.862 22.4713C32.987 22.5964 33.1565 22.6666 33.3333 22.6667C33.3547 22.6667 33.3767 22.6667 33.4 22.6633C33.4981 22.6536 33.5928 22.6222 33.6773 22.5715C33.7618 22.5208 33.834 22.452 33.8887 22.37L36.5553 18.37C36.6039 18.2972 36.6377 18.2155 36.6547 18.1296C36.6717 18.0437 36.6717 17.9553 36.6545 17.8694C36.6374 17.7836 36.6035 17.7019 36.5548 17.6291C36.5061 17.5564 36.4435 17.4939 36.3707 17.4453C36.2978 17.3967 36.2161 17.363 36.1302 17.346C36.0444 17.3289 35.956 17.329 35.8701 17.3462C35.7842 17.3633 35.7026 17.3972 35.6298 17.4459C35.557 17.4946 35.4946 17.5572 35.446 17.63L33.2307 20.954L32.472 20.1953C32.3463 20.0739 32.1779 20.0067 32.0031 20.0082C31.8283 20.0097 31.6611 20.0798 31.5375 20.2035C31.4139 20.3271 31.3437 20.4943 31.3422 20.6691C31.3407 20.8439 31.4079 21.0123 31.5293 21.138L32.862 22.4713Z" fill="#3C3C3C"/>
</svg>
