<svg width="36" height="40" viewBox="0 0 36 40" fill="none" xmlns="http://www.w3.org/2000/svg">
<path d="M32.644 12.4518C32.6594 12.4031 32.7004 12.3704 32.7462 12.3704H33.8133C34.4676 12.3704 35 11.8222 35 11.1484V9.32311C35 8.64928 34.4676 8.10103 33.8133 8.10103H32.7462C32.7004 8.10103 32.6594 8.06837 32.644 8.01968C32.5327 7.66618 32.3933 7.31906 32.2296 6.98775C32.2069 6.9418 32.2133 6.88844 32.2458 6.85512L32.9998 6.07857C33.4623 5.60208 33.4623 4.82687 32.9998 4.35031L31.7465 3.05964C31.2838 2.58316 30.5309 2.58309 30.0682 3.05964L29.314 3.83627C29.2818 3.86945 29.23 3.87627 29.1852 3.85275C28.864 3.68434 28.5268 3.5408 28.1833 3.42606C28.136 3.41025 28.1042 3.36802 28.1042 3.32089V2.22201C28.1042 1.54818 27.5719 1 26.9176 1H25.1451C24.4908 1 23.9584 1.54818 23.9584 2.22201V3.32097C23.9584 3.3681 23.9267 3.41033 23.8794 3.42614C23.5358 3.54088 23.1987 3.68442 22.8774 3.85289C22.8328 3.87635 22.7809 3.86974 22.7486 3.83627L21.9945 3.05972C21.5318 2.58323 20.7789 2.58316 20.3162 3.05972L19.0629 4.35038C18.6002 4.82694 18.6002 5.60216 19.0629 6.07871L19.8169 6.85519C19.8494 6.88852 19.8558 6.94188 19.8331 6.98789C19.7343 7.18784 19.6454 7.39439 19.5649 7.60443L13.7679 4.15779C13.3344 3.90002 12.796 3.90002 12.3625 4.15779L1.70284 10.4955C1.26933 10.7531 1.00007 11.2334 1.00007 11.7489V19.4713C1.00007 19.7788 1.24202 20.9046 1.54054 20.9046C1.83906 20.9046 2.08115 19.788 2.08115 19.4805V12.1988L12.5247 18.408V30.8264L2.24324 24.7137C2.1432 24.6542 2.08108 24.5434 2.08108 24.4245L2.08115 19.4805C2.08115 19.173 1.83906 18.9238 1.54054 18.9238C1.24202 18.9238 1 19.173 1 19.4805V24.4244C1 24.9398 1.26926 25.4201 1.7027 25.6778L12.3625 32.0156C12.5792 32.1445 12.8221 32.2089 13.0652 32.2089C13.3081 32.2089 13.5512 32.1445 13.7679 32.0156L17.7106 29.6715C17.9597 30.6228 18.3634 31.544 18.926 32.3951C19.0306 32.5533 19.2005 32.6385 19.3733 32.6385C19.478 32.6385 19.5839 32.6072 19.677 32.5419C19.9238 32.3689 19.9877 32.0226 19.8197 31.7685C17.741 28.6241 18.1313 24.3863 20.7478 21.6919C23.7543 18.5957 28.6464 18.5957 31.6529 21.6919C32.8956 22.9716 33.6822 24.6654 33.8677 26.4613C34.0283 28.0148 33.7373 29.5909 33.0456 30.9657C32.5813 30.6448 32.0231 30.4571 31.423 30.4571H30.8332C32.2564 28.2389 32.0206 25.2162 30.1256 23.2647C27.9612 21.0359 24.4395 21.0359 22.2751 23.2647C21.4184 24.147 20.8754 25.2646 20.705 26.4967C20.5402 27.6877 20.7494 28.9259 21.294 29.9836C21.4338 30.2552 21.761 30.3588 22.0247 30.2147C22.2885 30.0707 22.389 29.7338 22.2491 29.4621C21.3241 27.6655 21.6418 25.4913 23.0396 24.0519C24.7823 22.2571 27.6182 22.2571 29.3612 24.0518C31.0708 25.8124 31.1022 28.6553 29.4578 30.4571H28.4454V27.6569C28.4454 26.3672 27.4469 25.2814 26.2196 25.2365C25.5864 25.2133 24.9872 25.4495 24.5322 25.9018C24.077 26.3542 23.8264 26.9619 23.8264 27.6133V31.4297C23.8264 31.7372 24.0683 31.9863 24.3669 31.9863C24.6655 31.9863 24.9074 31.7372 24.9074 31.4297V27.6132C24.9074 27.2668 25.0408 26.9435 25.2829 26.7028C25.5249 26.4623 25.8435 26.3374 26.1812 26.349C26.8336 26.3729 27.3644 26.9596 27.3644 27.6569V31.0137C27.3644 31.3212 27.6063 31.5703 27.9049 31.5703H31.423C32.4365 31.5703 33.2609 32.4193 33.2609 33.463V35.9941C33.2609 37.0377 32.4365 37.8867 31.423 37.8867H26.7453C25.7319 37.8867 24.9074 37.0377 24.9074 35.9941V34.0273C24.9074 33.7199 24.6655 33.4707 24.3669 33.4707C24.0683 33.4707 23.8264 33.7199 23.8264 34.0273V35.9941C23.8264 37.6515 25.1358 39 26.7453 39H31.423C33.0325 39 34.342 37.6515 34.342 35.9941V33.463C34.342 32.842 34.1581 32.2644 33.8435 31.7847C34.748 30.147 35.1377 28.2303 34.9428 26.3434C34.7312 24.2953 33.8343 22.3637 32.4174 20.9046C31.1896 19.6403 29.686 18.8289 28.1042 18.4702V17.1506C28.1042 17.1035 28.1359 17.0612 28.1832 17.0454C28.5269 16.9305 28.864 16.787 29.1852 16.6187C29.23 16.5953 29.2818 16.6018 29.314 16.6352L30.0681 17.4118C30.2923 17.6425 30.5903 17.7697 30.9073 17.7697C31.2242 17.7697 31.5222 17.6425 31.7465 17.4118L32.9998 16.1211C33.4624 15.6446 33.4624 14.8693 32.9998 14.3929L32.2458 13.6163C32.2133 13.583 32.2069 13.5296 32.2296 13.4836C32.3932 13.1526 32.5326 12.8054 32.644 12.4518ZM12.9031 5.12189C13.003 5.06251 13.1273 5.06236 13.2274 5.12189L23.5087 11.2348L13.0652 17.444L2.62169 11.2347L12.9031 5.12189ZM19.9833 20.9046C17.991 22.9563 17.1313 25.7931 17.4859 28.5195L13.6057 30.8265V18.4081L24.0493 12.1989V18.5305C22.5585 18.9153 21.147 19.7063 19.9833 20.9046ZM31.4812 14.4035L32.2353 15.1802C32.2764 15.2225 32.2764 15.2915 32.2353 15.3339L30.9819 16.6245C30.9409 16.667 30.8738 16.6671 30.8327 16.6245L30.0786 15.848C29.7142 15.4727 29.1581 15.3838 28.6949 15.6265C28.424 15.7685 28.1396 15.8897 27.8495 15.9866C27.3553 16.1518 27.0232 16.6196 27.0232 17.1507V18.2967C26.3934 18.2363 25.7585 18.2453 25.1303 18.324V13.6695C25.4232 13.7513 25.7263 13.7938 26.0313 13.7938C27.9365 13.7938 29.4864 12.1977 29.4864 10.2359C29.4864 8.27403 27.9365 6.67773 26.0313 6.67773C25.7858 6.67773 25.5386 6.70512 25.2963 6.75923C25.0046 6.82439 24.8194 7.12075 24.8826 7.42118C24.9458 7.72155 25.2331 7.91251 25.5254 7.84727C25.6925 7.80994 25.8627 7.79102 26.0314 7.79102C27.3404 7.79102 28.4054 8.88767 28.4054 10.2357C28.4054 11.5837 27.3404 12.6804 26.0314 12.6804C25.7222 12.6804 25.4157 12.6173 25.1304 12.4964V11.7488C25.1304 11.2334 24.8612 10.753 24.4277 10.4955L23.6655 10.0423C23.6888 9.73258 23.7676 9.43437 23.9023 9.15389C24.0346 8.87832 23.925 8.54441 23.6575 8.40814C23.3896 8.27188 23.0656 8.38484 22.9333 8.66027C22.8119 8.91305 22.7216 9.17564 22.662 9.44572L20.5127 8.16782C20.5942 7.93686 20.689 7.71041 20.7966 7.49273C21.0323 7.01573 20.9458 6.44305 20.5815 6.0678L19.8274 5.29133C19.7862 5.24895 19.7862 5.17993 19.8274 5.13755L21.0808 3.84688C21.1219 3.8045 21.189 3.80443 21.23 3.84688L21.9841 4.62336C22.3485 4.99876 22.9046 5.08767 23.3678 4.8449C23.6388 4.70285 23.9231 4.58172 24.2131 4.48487C24.7074 4.31973 25.0395 3.85193 25.0395 3.32075V2.22201C25.0395 2.16204 25.0869 2.11328 25.1452 2.11328H26.9177C26.9759 2.11328 27.0232 2.16204 27.0232 2.22201V3.32097C27.0232 3.85208 27.3553 4.31988 27.8498 4.48509C28.1396 4.58195 28.424 4.70307 28.695 4.84505C29.1582 5.08797 29.7143 4.99891 30.0787 4.62366L30.8328 3.84711C30.874 3.80465 30.9411 3.80473 30.9821 3.84711L32.2354 5.1377C32.2766 5.18015 32.2766 5.24925 32.2354 5.29155L31.4814 6.06803C31.117 6.44335 31.0305 7.01595 31.2662 7.49288C31.4043 7.77231 31.522 8.06518 31.6159 8.36346C31.7764 8.87238 32.2306 9.21446 32.7464 9.21446H33.8135C33.8718 9.21446 33.9191 9.26322 33.9191 9.32326V11.1485C33.9191 11.2085 33.8718 11.2573 33.8135 11.2573H32.7464C32.2306 11.2573 31.7764 11.5993 31.6159 12.1083C31.5219 12.4068 31.4043 12.6996 31.2662 12.9788C31.0304 13.4556 31.1169 14.0283 31.4812 14.4035Z" fill="#3C3C3C"/>
<path d="M2.08115 19.4805C2.08115 19.788 1.83906 20.9046 1.54054 20.9046C1.24202 20.9046 1.00007 19.7788 1.00007 19.4713V11.7489C1.00007 11.2334 1.26933 10.7531 1.70284 10.4955L12.3625 4.15779C12.796 3.90002 13.3344 3.90002 13.7679 4.15779L19.5649 7.60443C19.6454 7.39439 19.7343 7.18784 19.8331 6.98789C19.8558 6.94188 19.8494 6.88852 19.8169 6.85519L19.0629 6.07871C18.6002 5.60216 18.6002 4.82694 19.0629 4.35038L20.3162 3.05972C20.7789 2.58316 21.5318 2.58323 21.9945 3.05972L22.7486 3.83627C22.7809 3.86974 22.8328 3.87635 22.8774 3.85289C23.1987 3.68442 23.5358 3.54088 23.8794 3.42614C23.9267 3.41033 23.9584 3.3681 23.9584 3.32097V2.22201C23.9584 1.54818 24.4908 1 25.1451 1H26.9176C27.5719 1 28.1042 1.54818 28.1042 2.22201V3.32089C28.1042 3.36802 28.136 3.41025 28.1833 3.42606C28.5268 3.5408 28.864 3.68434 29.1852 3.85275C29.23 3.87627 29.2818 3.86945 29.314 3.83627L30.0682 3.05964C30.5309 2.58309 31.2838 2.58316 31.7465 3.05964L32.9998 4.35031C33.4623 4.82687 33.4623 5.60208 32.9998 6.07857L32.2458 6.85512C32.2133 6.88844 32.2069 6.9418 32.2296 6.98775C32.3933 7.31906 32.5327 7.66618 32.644 8.01968C32.6594 8.06837 32.7004 8.10103 32.7462 8.10103H33.8133C34.4676 8.10103 35 8.64928 35 9.32311V11.1484C35 11.8222 34.4676 12.3704 33.8133 12.3704H32.7462C32.7004 12.3704 32.6594 12.4031 32.644 12.4518C32.5326 12.8054 32.3932 13.1526 32.2296 13.4836C32.2069 13.5296 32.2133 13.583 32.2458 13.6163L32.9998 14.3929C33.4624 14.8693 33.4624 15.6446 32.9998 16.1211L31.7465 17.4118C31.5222 17.6425 31.2242 17.7697 30.9073 17.7697C30.5903 17.7697 30.2923 17.6425 30.0681 17.4118L29.314 16.6352C29.2818 16.6018 29.23 16.5953 29.1852 16.6187C28.864 16.787 28.5269 16.9305 28.1832 17.0454C28.1359 17.0612 28.1042 17.1035 28.1042 17.1506V18.4702C29.686 18.8289 31.1896 19.6403 32.4174 20.9046C33.8343 22.3637 34.7312 24.2953 34.9428 26.3434C35.1377 28.2303 34.748 30.147 33.8435 31.7847C34.1581 32.2644 34.342 32.842 34.342 33.463V35.9941C34.342 37.6515 33.0325 39 31.423 39H26.7453C25.1358 39 23.8264 37.6515 23.8264 35.9941V34.0273C23.8264 33.7199 24.0683 33.4707 24.3669 33.4707C24.6655 33.4707 24.9074 33.7199 24.9074 34.0273V35.9941C24.9074 37.0377 25.7319 37.8867 26.7453 37.8867H31.423C32.4365 37.8867 33.2609 37.0377 33.2609 35.9941V33.463C33.2609 32.4193 32.4365 31.5703 31.423 31.5703H27.9049C27.6063 31.5703 27.3644 31.3212 27.3644 31.0137V27.6569C27.3644 26.9596 26.8336 26.3729 26.1812 26.349C25.8435 26.3374 25.5249 26.4623 25.2829 26.7028C25.0408 26.9435 24.9074 27.2668 24.9074 27.6132V31.4297C24.9074 31.7372 24.6655 31.9863 24.3669 31.9863C24.0683 31.9863 23.8264 31.7372 23.8264 31.4297V27.6133C23.8264 26.9619 24.077 26.3542 24.5322 25.9018C24.9872 25.4495 25.5864 25.2133 26.2196 25.2365C27.4469 25.2814 28.4454 26.3672 28.4454 27.6569V30.4571H29.4578C31.1022 28.6553 31.0708 25.8124 29.3612 24.0518C27.6182 22.2571 24.7823 22.2571 23.0396 24.0519C21.6418 25.4913 21.3241 27.6655 22.2491 29.4621C22.389 29.7338 22.2885 30.0707 22.0247 30.2147C21.761 30.3588 21.4338 30.2552 21.294 29.9836C20.7494 28.9259 20.5402 27.6877 20.705 26.4967C20.8754 25.2646 21.4184 24.147 22.2751 23.2647C24.4395 21.0359 27.9612 21.0359 30.1256 23.2647C32.0206 25.2162 32.2564 28.2389 30.8332 30.4571H31.423C32.0231 30.4571 32.5813 30.6447 33.0456 30.9657C33.7373 29.5909 34.0283 28.0148 33.8677 26.4613C33.6822 24.6654 32.8956 22.9716 31.6529 21.6919C28.6464 18.5957 23.7543 18.5957 20.7478 21.6919C18.1313 24.3863 17.741 28.6241 19.8197 31.7685C19.9877 32.0226 19.9238 32.3689 19.677 32.5419C19.5839 32.6072 19.478 32.6385 19.3733 32.6385C19.2005 32.6385 19.0306 32.5533 18.926 32.3951C18.3634 31.544 17.9597 30.6228 17.7106 29.6715L13.7679 32.0156C13.5512 32.1445 13.3081 32.2089 13.0652 32.2089C12.8221 32.2089 12.5792 32.1445 12.3625 32.0156L1.7027 25.6778C1.26926 25.4201 1 24.9398 1 24.4244V19.4805C1 19.173 1.24202 18.9238 1.54054 18.9238C1.83906 18.9238 2.08115 19.173 2.08115 19.4805ZM2.08115 19.4805V12.1988L12.5247 18.408V30.8264L2.24324 24.7137C2.1432 24.6542 2.08108 24.5434 2.08108 24.4245L2.08115 19.4805ZM12.9031 5.12189C13.003 5.06251 13.1273 5.06236 13.2274 5.12189L23.5087 11.2348L13.0652 17.444L2.62169 11.2347L12.9031 5.12189ZM19.9833 20.9046C17.991 22.9563 17.1313 25.7931 17.4859 28.5195L13.6057 30.8265V18.4081L24.0493 12.1989V18.5305C22.5585 18.9153 21.147 19.7063 19.9833 20.9046ZM31.4812 14.4035L32.2353 15.1802C32.2764 15.2225 32.2764 15.2915 32.2353 15.3339L30.9819 16.6245C30.9409 16.667 30.8738 16.6671 30.8327 16.6245L30.0786 15.848C29.7142 15.4727 29.1581 15.3838 28.6949 15.6265C28.424 15.7685 28.1396 15.8897 27.8495 15.9866C27.3553 16.1518 27.0232 16.6196 27.0232 17.1507V18.2967C26.3934 18.2363 25.7585 18.2453 25.1303 18.324V13.6695C25.4232 13.7513 25.7263 13.7938 26.0313 13.7938C27.9365 13.7938 29.4864 12.1977 29.4864 10.2359C29.4864 8.27403 27.9365 6.67773 26.0313 6.67773C25.7858 6.67773 25.5386 6.70512 25.2963 6.75923C25.0046 6.82439 24.8194 7.12075 24.8826 7.42118C24.9458 7.72155 25.2331 7.91251 25.5254 7.84727C25.6925 7.80994 25.8627 7.79102 26.0314 7.79102C27.3404 7.79102 28.4054 8.88767 28.4054 10.2357C28.4054 11.5837 27.3404 12.6804 26.0314 12.6804C25.7222 12.6804 25.4157 12.6173 25.1304 12.4964V11.7488C25.1304 11.2334 24.8612 10.753 24.4277 10.4955L23.6655 10.0423C23.6888 9.73258 23.7676 9.43437 23.9023 9.15389C24.0346 8.87832 23.925 8.54441 23.6575 8.40814C23.3896 8.27188 23.0656 8.38484 22.9333 8.66027C22.8119 8.91305 22.7216 9.17564 22.662 9.44572L20.5127 8.16782C20.5942 7.93686 20.689 7.71041 20.7966 7.49273C21.0323 7.01573 20.9458 6.44305 20.5815 6.0678L19.8274 5.29133C19.7862 5.24895 19.7862 5.17993 19.8274 5.13755L21.0808 3.84688C21.1219 3.8045 21.189 3.80443 21.23 3.84688L21.9841 4.62336C22.3485 4.99876 22.9046 5.08767 23.3678 4.8449C23.6387 4.70285 23.9231 4.58172 24.2131 4.48487C24.7074 4.31973 25.0395 3.85193 25.0395 3.32075V2.22201C25.0395 2.16204 25.0869 2.11328 25.1452 2.11328H26.9177C26.9759 2.11328 27.0232 2.16204 27.0232 2.22201V3.32097C27.0232 3.85208 27.3553 4.31988 27.8498 4.48509C28.1396 4.58195 28.424 4.70307 28.695 4.84505C29.1582 5.08797 29.7143 4.99891 30.0787 4.62366L30.8328 3.84711C30.874 3.80465 30.9411 3.80473 30.9821 3.84711L32.2354 5.1377C32.2766 5.18015 32.2766 5.24925 32.2354 5.29155L31.4814 6.06803C31.117 6.44335 31.0305 7.01595 31.2662 7.49288C31.4043 7.77231 31.522 8.06518 31.6159 8.36346C31.7764 8.87238 32.2306 9.21446 32.7464 9.21446H33.8135C33.8718 9.21446 33.9191 9.26322 33.9191 9.32326V11.1485C33.9191 11.2085 33.8718 11.2573 33.8135 11.2573H32.7464C32.2306 11.2573 31.7764 11.5993 31.6159 12.1083C31.5219 12.4068 31.4043 12.6996 31.2662 12.9788C31.0304 13.4556 31.1169 14.0283 31.4812 14.4035Z" stroke="#3C3C3C" stroke-width="0.5"/>
</svg>
