<svg width="34" height="40" viewBox="0 0 34 40" fill="none" xmlns="http://www.w3.org/2000/svg">
<path d="M30.8543 8.76862H24.7418L26.3762 7.46672C26.5268 7.34672 26.6147 7.16411 26.6147 6.97091V5.88055C27.3401 5.61992 27.8609 4.92198 27.8609 4.10356C27.8609 3.0634 27.0199 2.21715 25.9862 2.21715C24.9525 2.21715 24.1115 3.0634 24.1115 4.10356C24.1115 4.9219 24.6323 5.61992 25.3577 5.88055V6.66498L23.2234 8.3649L22.6569 7.79494C22.4731 7.61004 22.1951 7.55818 21.9574 7.66419L20.8678 8.15115C20.3296 7.84846 19.7602 7.61083 19.1683 7.44206L18.7403 6.32324C18.6469 6.07913 18.4138 5.91802 18.1537 5.91802H17.6285V3.6634C18.3539 3.40277 18.8747 2.70474 18.8747 1.8864C18.8747 0.846245 18.0336 0 17 0C15.9664 0 15.1253 0.846245 15.1253 1.88632C15.1253 2.70474 15.6461 3.40277 16.3715 3.66332V5.91794H15.8463C15.5863 5.91794 15.3531 6.07905 15.2597 6.32316L14.8317 7.44206C14.2398 7.61083 13.6703 7.84846 13.1322 8.15115L12.0426 7.66419C11.805 7.55787 11.5269 7.60996 11.3431 7.79494L10.7766 8.3649L8.64231 6.66498V5.88055C9.36774 5.61992 9.88852 4.92198 9.88852 4.10356C9.88852 3.0634 9.04753 2.21715 8.01383 2.21715C6.98012 2.21715 6.13913 3.0634 6.13913 4.10356C6.13913 4.9219 6.65991 5.61992 7.38534 5.88055V6.97091C7.38534 7.16411 7.47317 7.3468 7.62377 7.46672L9.25823 8.76862H3.14565C1.41111 8.76862 0 10.1885 0 11.9339V29.3589C0 31.1043 1.41111 32.5242 3.14565 32.5242H11.2262V35.2836H8.02318C6.49297 35.2836 5.2481 36.3414 5.2481 37.6417V39.3676C5.2481 39.7168 5.5295 40 5.87658 40H28.1234C28.4705 40 28.7519 39.7168 28.7519 39.3676V37.6417C28.7519 36.3414 27.507 35.2836 25.9768 35.2836H22.7738V32.5242H30.8543C32.5888 32.5242 34 31.1043 34 29.3589V11.9339C34 10.1885 32.5888 8.76862 30.8543 8.76862ZM25.9862 3.48198C26.3267 3.48198 26.6039 3.76079 26.6039 4.10356C26.6039 4.36142 26.4469 4.583 26.2241 4.677H25.7482C25.5254 4.58308 25.3684 4.36142 25.3684 4.10356C25.3684 3.76079 25.6456 3.48198 25.9862 3.48198ZM17 1.26482C17.3406 1.26482 17.6177 1.54364 17.6177 1.88632C17.6177 2.22909 17.3406 2.50791 17 2.50791C16.6594 2.50791 16.3823 2.22909 16.3823 1.88632C16.3823 1.54364 16.6594 1.26482 17 1.26482ZM8.01383 3.48198C8.35439 3.48198 8.63155 3.76079 8.63155 4.10356C8.63155 4.44625 8.35447 4.72506 8.01383 4.72506C7.67319 4.72506 7.3961 4.44625 7.3961 4.10356C7.3961 3.76079 7.67327 3.48198 8.01383 3.48198ZM8.2488 13.3779C8.00621 13.4718 7.8461 13.7064 7.8461 13.9681V14.4967H6.33506C6.07613 13.7666 5.38235 13.2427 4.56909 13.2427C4.10959 13.2427 3.68835 13.4102 3.36193 13.6874V12.1515H9.63155C9.52761 12.4116 9.43672 12.6769 9.36059 12.9473L8.2488 13.3779ZM5.18674 15.1291C5.18674 15.4718 4.90966 15.7506 4.56902 15.7506C4.22838 15.7506 3.95129 15.4718 3.95129 15.1291C3.95129 14.7863 4.22838 14.5075 4.56902 14.5075C4.90966 14.5075 5.18674 14.7863 5.18674 15.1291ZM3.36193 16.5708C3.68835 16.8479 4.10951 17.0154 4.56909 17.0154C5.38235 17.0154 6.07605 16.4915 6.33506 15.7615H7.8461V16.2901C7.8461 16.5518 8.00621 16.7863 8.2488 16.8803L9.36028 17.3108C9.52816 17.907 9.76424 18.4802 10.065 19.0216L9.58127 20.1175C9.47569 20.3566 9.52738 20.6364 9.71121 20.8214L11.3429 22.4633C11.5267 22.6482 11.8048 22.7003 12.0424 22.5941L13.1321 22.1071C13.6704 22.4098 14.2397 22.6474 14.8316 22.8161L15.2596 23.9349C15.353 24.1791 15.5861 24.3402 15.8462 24.3402H18.1537C18.4138 24.3402 18.6469 24.1791 18.7403 23.9349L19.1681 22.8165C19.7605 22.6477 20.33 22.4101 20.8683 22.1073L21.9574 22.5941C22.1951 22.7003 22.4731 22.6483 22.6569 22.4633L24.2886 20.8214C24.4725 20.6364 24.5242 20.3566 24.4186 20.1175L23.9347 19.021C24.2355 18.4795 24.4715 17.9066 24.6393 17.3109L25.7512 16.8802C25.9938 16.7863 26.1539 16.5517 26.1539 16.29V15.7615H27.6649C27.9239 16.4915 28.6176 17.0154 29.4309 17.0154C29.8905 17.0154 30.3117 16.8478 30.6381 16.5707V26.9927H3.36193V16.5708ZM28.8132 15.1291C28.8132 14.7863 29.0903 14.5075 29.4308 14.5075C29.7715 14.5075 30.0485 14.7863 30.0485 15.1291C30.0485 15.4718 29.7715 15.7506 29.4308 15.7506C29.0903 15.7506 28.8132 15.4718 28.8132 15.1291ZM30.6381 13.6874C30.3117 13.4102 29.8905 13.2427 29.4309 13.2427C28.6176 13.2427 27.924 13.7667 27.6649 14.4967H26.1539V13.9681C26.1539 13.7064 25.9938 13.4719 25.7512 13.3779L24.6397 12.9474C24.5636 12.677 24.4727 12.4116 24.3688 12.1515H30.6381V13.6874ZM11.9267 8.99636L12.9168 9.43881C13.1063 9.52348 13.3249 9.5087 13.5014 9.39937C14.1053 9.02522 14.7602 8.75202 15.4479 8.58727C15.6495 8.53905 15.8144 8.39391 15.8889 8.19929L16.2778 7.18292H17.7223L18.1111 8.19929C18.1855 8.39391 18.3505 8.53905 18.5521 8.58727C19.2398 8.75202 19.8947 9.02522 20.4986 9.39937C20.6751 9.50877 20.8938 9.52356 21.0832 9.43881L22.0733 8.99636L23.0947 10.0241L22.6552 11.02C22.5711 11.2106 22.5857 11.4307 22.6945 11.6083C23.0663 12.2159 23.3379 12.8749 23.5016 13.5674C23.5495 13.7703 23.6938 13.9364 23.8873 14.0112L24.897 14.4023V15.8558L23.8869 16.247C23.6936 16.3219 23.5493 16.488 23.5013 16.6908C23.3377 17.3828 23.0661 18.0418 22.6943 18.6494C22.5857 18.827 22.571 19.047 22.655 19.2376L23.0947 20.234L22.0734 21.2617L21.0837 20.8194C20.8943 20.7348 20.6755 20.7496 20.4991 20.859C19.8953 21.2331 19.2402 21.5063 18.5522 21.671C18.3506 21.7192 18.1856 21.8644 18.1111 22.0591L17.7224 23.0752H16.2779L15.8891 22.0588C15.8147 21.8642 15.6497 21.719 15.448 21.6708C14.7604 21.5062 14.1054 21.233 13.5015 20.8588C13.325 20.7495 13.1064 20.7348 12.9169 20.8194L11.9268 21.2618L10.9053 20.2341L11.3449 19.2382C11.429 19.0476 11.4143 18.8275 11.3056 18.6499C10.9339 18.0425 10.6623 17.3834 10.4985 16.6907C10.4505 16.4878 10.3062 16.3218 10.1128 16.247L9.10307 15.8559V14.4024L10.113 14.0111C10.3064 13.9363 10.4507 13.7702 10.4987 13.5674C10.6624 12.8751 10.9339 12.2161 11.3058 11.6087C11.4144 11.4311 11.4291 11.211 11.345 11.0204L10.9053 10.0242L11.9267 8.99636ZM27.4949 37.6417V38.7352H6.50507V37.6417C6.50507 37.0491 7.20025 36.5484 8.02318 36.5484H25.9768C26.7997 36.5484 27.4949 37.0491 27.4949 37.6417ZM21.5168 35.2836H12.4831V32.5242H21.5168V35.2836ZM32.743 29.3589C32.743 30.4068 31.8957 31.2594 30.8543 31.2594H3.14565C2.10425 31.2594 1.25697 30.4068 1.25697 29.3589V11.9339C1.25697 10.886 2.10425 10.0334 3.14565 10.0334H9.54608C9.55487 10.0697 9.56595 10.1057 9.58135 10.1406L9.9106 10.8866H3.08249C2.54348 10.8866 2.10496 11.3279 2.10496 11.8703V27.6251C2.10496 27.9744 2.38636 28.2575 2.73344 28.2575H31.2666C31.6137 28.2575 31.8951 27.9744 31.8951 27.6251V11.8703C31.8951 11.3279 31.4565 10.8866 30.9175 10.8866H24.0893L24.4186 10.1406C24.434 10.1056 24.4451 10.0696 24.4539 10.0334H30.8543C31.8957 10.0334 32.743 10.886 32.743 11.9339V29.3589ZM17 19.9116C19.6207 19.9116 21.7529 17.7662 21.7529 15.1291C21.7529 12.492 19.6208 10.3465 17 10.3465C14.3792 10.3465 12.2471 12.492 12.2471 15.1291C12.2471 17.7662 14.3792 19.9116 17 19.9116ZM17 11.6113C18.9276 11.6113 20.496 13.1894 20.496 15.1291C20.496 17.0688 18.9277 18.6468 17 18.6468C15.0723 18.6468 13.504 17.0688 13.504 15.1291C13.504 13.1894 15.0724 11.6113 17 11.6113Z" fill="#3C3C3C"/>
</svg>
