<svg width="110" height="110" viewBox="0 0 110 110" fill="none" xmlns="http://www.w3.org/2000/svg">
<path d="M106.776 103.555H103.338V39.9614C103.338 38.1816 101.895 36.7387 100.116 36.7387H87.2253C85.4455 36.7387 84.0027 38.1816 84.0027 39.9614V103.555H77.5575V61.4456C77.5575 59.6659 76.1146 58.223 74.3348 58.223H61.4444C59.6647 58.223 58.2218 59.6659 58.2218 61.4456V103.555H51.7766V73.2619C51.7766 71.4822 50.3337 70.0393 48.554 70.0393H35.6635C33.8838 70.0393 32.4409 71.4822 32.4409 73.2619V103.555H25.9957V80.9963C25.9957 79.2165 24.5528 77.7736 22.7731 77.7736H9.88267C8.10293 77.7736 6.66006 79.2165 6.66006 80.9963V103.555H3.22261C1.44287 103.555 0 104.998 0 106.777C0 108.557 1.44287 110 3.22261 110H106.776C108.556 110 109.998 108.557 109.998 106.777C109.998 104.998 108.556 103.555 106.776 103.555Z" fill="white"/>
<path d="M3.22261 69.2452C23.3356 69.2452 45.1466 62.0218 64.6382 48.9055C79.9037 38.6328 92.6289 25.5096 100.533 12.0718L103.663 23.7521C104.049 25.192 105.912 26.436 107.61 26.0308C109.341 25.6178 110.349 23.8031 109.889 22.0839L104.611 2.38929C104.151 0.670332 102.384 -0.350169 100.665 0.110668L80.9702 5.38784C79.251 5.84846 78.231 7.61555 78.6916 9.33471C79.1524 11.0539 80.9186 12.0744 82.6384 11.6133L95.3258 8.21367C87.9514 21.0282 75.764 33.6497 61.0399 43.558C42.6005 55.9665 22.0674 62.8 3.22261 62.8C1.44287 62.8 1.22236e-06 64.2429 1.22236e-06 66.0226C1.22236e-06 67.8024 1.44287 69.2452 3.22261 69.2452Z" fill="white"/>
</svg>
